<svg xmlns="http://www.w3.org/2000/svg" viewBox="0 0 920 650" role="img" aria-labelledby="title desc">
<title id="title">TypeShala mobile mock test with a realistic landscape phone and compact QWERTY keyboard</title>
<desc id="desc">A proportionally sized landscape smartphone displaying a TypeShala legal typing mock test, paired with a compact physical Bluetooth keyboard.</desc>
<defs>
 <linearGradient id="bg" x1="0" y1="0" x2="1" y2="1"><stop stop-color="#fff"/><stop offset="1" stop-color="#e5efff"/></linearGradient>
 <linearGradient id="metal" x1="0" y1="0" x2="1" y2="1"><stop stop-color="#7c8798"/><stop offset=".18" stop-color="#111827"/><stop offset=".55" stop-color="#293447"/><stop offset="1" stop-color="#090f1b"/></linearGradient>
 <linearGradient id="display" x1="0" y1="0" x2="0" y2="1"><stop stop-color="#fff"/><stop offset="1" stop-color="#f3f6fb"/></linearGradient>
 <linearGradient id="key" x1="0" y1="0" x2="0" y2="1"><stop stop-color="#3a4658"/><stop offset="1" stop-color="#182231"/></linearGradient>
 <filter id="shadow" x="-30%" y="-30%" width="160%" height="170%"><feGaussianBlur stdDeviation="15"/></filter>
</defs>
<rect width="920" height="760" rx="32" fill="url(#bg)"/>
<circle cx="835" cy="60" r="170" fill="#d4e5ff" opacity=".55"/><circle cx="60" cy="700" r="155" fill="#e9e5ff" opacity=".5"/>
<ellipse cx="530" cy="625" rx="350" ry="24" fill="#142b50" opacity=".16" filter="url(#shadow)"/>
<!-- landscape smartphone: approx. 2.05:1 body ratio -->
<g transform="translate(175 58) rotate(-3 345 165)">
 <rect x="0" y="0" width="690" height="335" rx="38" fill="url(#metal)" stroke="#8793a4" stroke-width="3"/>
 <rect x="7" y="7" width="676" height="321" rx="33" fill="#080e18"/>
 <rect x="17" y="16" width="656" height="303" rx="26" fill="url(#display)"/>
 <circle cx="27" cy="168" r="3.2" fill="#111827"/>
 <path d="M17 42q0-26 26-26h604q26 0 26 26v38H17z" fill="#0b1c40"/>
 <circle cx="54" cy="47" r="11" fill="#1673ef"/><path d="M48 47h12M54 41v12" stroke="#fff" stroke-width="1.7" stroke-linecap="round"/>
 <text x="74" y="53" font-family="Arial,sans-serif" font-size="16" font-weight="700" fill="#fff">TypeShala</text>
 <path d="M640 38h14v14h-14z" fill="none" stroke="#dbeafe" stroke-width="1.5"/>
 <text x="48" y="105" font-family="Arial,sans-serif" font-size="9" font-weight="700" fill="#697891">LEGAL MOCK 23 · 5 MIN</text>
 <g font-family="Arial,sans-serif" text-anchor="middle"><text x="432" y="99" font-size="19" font-weight="700" fill="#101b30">0</text><text x="432" y="113" font-size="8" fill="#75839a">WPM</text><text x="490" y="99" font-size="19" font-weight="700" fill="#101b30">100%</text><text x="490" y="113" font-size="8" fill="#75839a">ACCURACY</text><text x="550" y="99" font-size="19" font-weight="700" fill="#101b30">0</text><text x="550" y="113" font-size="8" fill="#75839a">MISTAKES</text></g>
 <rect x="584" y="87" width="66" height="35" rx="5" fill="#fff" stroke="#356be8" stroke-width="1.5"/><text x="617" y="110" text-anchor="middle" font-family="Arial,sans-serif" font-size="15" font-weight="700" fill="#356be8">05:00</text>
 <rect x="42" y="132" width="608" height="119" rx="7" fill="#f7f9fc" stroke="#e1e7f0"/>
 <g font-family="monospace" font-size="12.5" fill="#65738b"><text x="58" y="158"><tspan fill="#2365e8" font-weight="700">Challenge</tspan><tspan> in this appeal is the judgment of the learned</tspan></text><text x="58" y="181">Single Judge of the Patna High Court holding that the appellants</text><text x="58" y="204">were not entitled to a decree for specific performance of the</text><text x="58" y="227">contract. In a second appeal filed by the respondent...</text></g>
 <rect x="42" y="263" width="608" height="37" rx="6" fill="#fff" stroke="#356be8" stroke-width="1.7"/>
 <text x="57" y="286" font-family="Arial,sans-serif" font-size="12" fill="#8b96a8">Connect a physical keyboard and start typing...</text>
</g>
<!-- slim fold-out phone stand -->
<path d="M245 392l-42 54h95l-17-54z" fill="#1b2738" opacity=".94"/><path d="M220 446h95" stroke="#65748b" stroke-width="4" stroke-linecap="round"/>
<!-- compact low-profile physical QWERTY keyboard -->
<g transform="translate(0 0) rotate(-2 465 590)">
 <rect x="205" y="355" width="700" height="280" rx="23" fill="#101722" stroke="#64748b" stroke-width="3"/>
 <rect x="213" y="363" width="684" height="264" rx="17" fill="#202b3a" stroke="#080d15" stroke-width="2"/>
 <g><rect x="230" y="370" width="42" height="34" rx="5" fill="url(#key)" stroke="#090f19" stroke-width="1.5"/><path d="M235 472h32" stroke="#718096" stroke-opacity=".35" stroke-width="1"/><text x="251" y="490" text-anchor="middle" font-family="Arial,sans-serif" font-size="11" fill="#dbe4f0">Esc</text></g><g><rect x="277" y="370" width="38" height="34" rx="5" fill="url(#key)" stroke="#090f19" stroke-width="1.5"/><path d="M282 472h28" stroke="#718096" stroke-opacity=".35" stroke-width="1"/><text x="296" y="490" text-anchor="middle" font-family="Arial,sans-serif" font-size="11" fill="#dbe4f0">F1</text></g><g><rect x="320" y="370" width="38" height="34" rx="5" fill="url(#key)" stroke="#090f19" stroke-width="1.5"/><path d="M325 472h28" stroke="#718096" stroke-opacity=".35" stroke-width="1"/><text x="339" y="490" text-anchor="middle" font-family="Arial,sans-serif" font-size="11" fill="#dbe4f0">F2</text></g><g><rect x="363" y="370" width="38" height="34" rx="5" fill="url(#key)" stroke="#090f19" stroke-width="1.5"/><path d="M368 472h28" stroke="#718096" stroke-opacity=".35" stroke-width="1"/><text x="382" y="490" text-anchor="middle" font-family="Arial,sans-serif" font-size="11" fill="#dbe4f0">F3</text></g><g><rect x="406" y="370" width="38" height="34" rx="5" fill="url(#key)" stroke="#090f19" stroke-width="1.5"/><path d="M411 472h28" stroke="#718096" stroke-opacity=".35" stroke-width="1"/><text x="425" y="490" text-anchor="middle" font-family="Arial,sans-serif" font-size="11" fill="#dbe4f0">F4</text></g><g><rect x="449" y="370" width="38" height="34" rx="5" fill="url(#key)" stroke="#090f19" stroke-width="1.5"/><path d="M454 472h28" stroke="#718096" stroke-opacity=".35" stroke-width="1"/><text x="468" y="490" text-anchor="middle" font-family="Arial,sans-serif" font-size="11" fill="#dbe4f0">F5</text></g><g><rect x="492" y="370" width="38" height="34" rx="5" fill="url(#key)" stroke="#090f19" stroke-width="1.5"/><path d="M497 472h28" stroke="#718096" stroke-opacity=".35" stroke-width="1"/><text x="511" y="490" text-anchor="middle" font-family="Arial,sans-serif" font-size="11" fill="#dbe4f0">F6</text></g><g><rect x="535" y="370" width="38" height="34" rx="5" fill="url(#key)" stroke="#090f19" stroke-width="1.5"/><path d="M540 472h28" stroke="#718096" stroke-opacity=".35" stroke-width="1"/><text x="554" y="490" text-anchor="middle" font-family="Arial,sans-serif" font-size="11" fill="#dbe4f0">F7</text></g><g><rect x="578" y="370" width="38" height="34" rx="5" fill="url(#key)" stroke="#090f19" stroke-width="1.5"/><path d="M583 472h28" stroke="#718096" stroke-opacity=".35" stroke-width="1"/><text x="597" y="490" text-anchor="middle" font-family="Arial,sans-serif" font-size="11" fill="#dbe4f0">F8</text></g><g><rect x="621" y="370" width="38" height="34" rx="5" fill="url(#key)" stroke="#090f19" stroke-width="1.5"/><path d="M626 472h28" stroke="#718096" stroke-opacity=".35" stroke-width="1"/><text x="640" y="490" text-anchor="middle" font-family="Arial,sans-serif" font-size="11" fill="#dbe4f0">F9</text></g><g><rect x="664" y="370" width="38" height="34" rx="5" fill="url(#key)" stroke="#090f19" stroke-width="1.5"/><path d="M669 472h28" stroke="#718096" stroke-opacity=".35" stroke-width="1"/><text x="683" y="490" text-anchor="middle" font-family="Arial,sans-serif" font-size="11" fill="#dbe4f0">F10</text></g><g><rect x="707" y="370" width="38" height="34" rx="5" fill="url(#key)" stroke="#090f19" stroke-width="1.5"/><path d="M712 472h28" stroke="#718096" stroke-opacity=".35" stroke-width="1"/><text x="726" y="490" text-anchor="middle" font-family="Arial,sans-serif" font-size="11" fill="#dbe4f0">F11</text></g><g><rect x="750" y="370" width="38" height="34" rx="5" fill="url(#key)" stroke="#090f19" stroke-width="1.5"/><path d="M755 472h28" stroke="#718096" stroke-opacity=".35" stroke-width="1"/><text x="769" y="490" text-anchor="middle" font-family="Arial,sans-serif" font-size="11" fill="#dbe4f0">F12</text></g><g><rect x="793" y="370" width="48" height="34" rx="5" fill="url(#key)" stroke="#090f19" stroke-width="1.5"/><path d="M798 472h38" stroke="#718096" stroke-opacity=".35" stroke-width="1"/><text x="817" y="490" text-anchor="middle" font-family="Arial,sans-serif" font-size="11" fill="#dbe4f0">Del</text></g><g><rect x="230" y="412" width="36" height="34" rx="5" fill="url(#key)" stroke="#090f19" stroke-width="1.5"/><path d="M235 516h26" stroke="#718096" stroke-opacity=".35" stroke-width="1"/><text x="248" y="534" text-anchor="middle" font-family="Arial,sans-serif" font-size="11" fill="#dbe4f0">~</text></g><g><rect x="271" y="412" width="36" height="34" rx="5" fill="url(#key)" stroke="#090f19" stroke-width="1.5"/><path d="M276 516h26" stroke="#718096" stroke-opacity=".35" stroke-width="1"/><text x="289" y="534" text-anchor="middle" font-family="Arial,sans-serif" font-size="11" fill="#dbe4f0">1</text></g><g><rect x="312" y="412" width="36" height="34" rx="5" fill="url(#key)" stroke="#090f19" stroke-width="1.5"/><path d="M317 516h26" stroke="#718096" stroke-opacity=".35" stroke-width="1"/><text x="330" y="534" text-anchor="middle" font-family="Arial,sans-serif" font-size="11" fill="#dbe4f0">2</text></g><g><rect x="353" y="412" width="36" height="34" rx="5" fill="url(#key)" stroke="#090f19" stroke-width="1.5"/><path d="M358 516h26" stroke="#718096" stroke-opacity=".35" stroke-width="1"/><text x="371" y="534" text-anchor="middle" font-family="Arial,sans-serif" font-size="11" fill="#dbe4f0">3</text></g><g><rect x="394" y="412" width="36" height="34" rx="5" fill="url(#key)" stroke="#090f19" stroke-width="1.5"/><path d="M399 516h26" stroke="#718096" stroke-opacity=".35" stroke-width="1"/><text x="412" y="534" text-anchor="middle" font-family="Arial,sans-serif" font-size="11" fill="#dbe4f0">4</text></g><g><rect x="435" y="412" width="36" height="34" rx="5" fill="url(#key)" stroke="#090f19" stroke-width="1.5"/><path d="M440 516h26" stroke="#718096" stroke-opacity=".35" stroke-width="1"/><text x="453" y="534" text-anchor="middle" font-family="Arial,sans-serif" font-size="11" fill="#dbe4f0">5</text></g><g><rect x="476" y="412" width="36" height="34" rx="5" fill="url(#key)" stroke="#090f19" stroke-width="1.5"/><path d="M481 516h26" stroke="#718096" stroke-opacity=".35" stroke-width="1"/><text x="494" y="534" text-anchor="middle" font-family="Arial,sans-serif" font-size="11" fill="#dbe4f0">6</text></g><g><rect x="517" y="412" width="36" height="34" rx="5" fill="url(#key)" stroke="#090f19" stroke-width="1.5"/><path d="M522 516h26" stroke="#718096" stroke-opacity=".35" stroke-width="1"/><text x="535" y="534" text-anchor="middle" font-family="Arial,sans-serif" font-size="11" fill="#dbe4f0">7</text></g><g><rect x="558" y="412" width="36" height="34" rx="5" fill="url(#key)" stroke="#090f19" stroke-width="1.5"/><path d="M563 516h26" stroke="#718096" stroke-opacity=".35" stroke-width="1"/><text x="576" y="534" text-anchor="middle" font-family="Arial,sans-serif" font-size="11" fill="#dbe4f0">8</text></g><g><rect x="599" y="412" width="36" height="34" rx="5" fill="url(#key)" stroke="#090f19" stroke-width="1.5"/><path d="M604 516h26" stroke="#718096" stroke-opacity=".35" stroke-width="1"/><text x="617" y="534" text-anchor="middle" font-family="Arial,sans-serif" font-size="11" fill="#dbe4f0">9</text></g><g><rect x="640" y="412" width="36" height="34" rx="5" fill="url(#key)" stroke="#090f19" stroke-width="1.5"/><path d="M645 516h26" stroke="#718096" stroke-opacity=".35" stroke-width="1"/><text x="658" y="534" text-anchor="middle" font-family="Arial,sans-serif" font-size="11" fill="#dbe4f0">0</text></g><g><rect x="681" y="412" width="36" height="34" rx="5" fill="url(#key)" stroke="#090f19" stroke-width="1.5"/><path d="M686 516h26" stroke="#718096" stroke-opacity=".35" stroke-width="1"/><text x="699" y="534" text-anchor="middle" font-family="Arial,sans-serif" font-size="11" fill="#dbe4f0">-</text></g><g><rect x="722" y="412" width="36" height="34" rx="5" fill="url(#key)" stroke="#090f19" stroke-width="1.5"/><path d="M727 516h26" stroke="#718096" stroke-opacity=".35" stroke-width="1"/><text x="740" y="534" text-anchor="middle" font-family="Arial,sans-serif" font-size="11" fill="#dbe4f0">=</text></g><g><rect x="763" y="412" width="76" height="34" rx="5" fill="url(#key)" stroke="#090f19" stroke-width="1.5"/><path d="M768 516h66" stroke="#718096" stroke-opacity=".35" stroke-width="1"/><text x="801" y="534" text-anchor="middle" font-family="Arial,sans-serif" font-size="8" fill="#dbe4f0">Backspace</text></g><g><rect x="230" y="454" width="55" height="34" rx="5" fill="url(#key)" stroke="#090f19" stroke-width="1.5"/><path d="M235 560h45" stroke="#718096" stroke-opacity=".35" stroke-width="1"/><text x="257.5" y="578" text-anchor="middle" font-family="Arial,sans-serif" font-size="11" fill="#dbe4f0">Tab</text></g><g><rect x="290" y="454" width="36" height="34" rx="5" fill="url(#key)" stroke="#090f19" stroke-width="1.5"/><path d="M295 560h26" stroke="#718096" stroke-opacity=".35" stroke-width="1"/><text x="308" y="578" text-anchor="middle" font-family="Arial,sans-serif" font-size="11" fill="#dbe4f0">Q</text></g><g><rect x="331" y="454" width="36" height="34" rx="5" fill="url(#key)" stroke="#090f19" stroke-width="1.5"/><path d="M336 560h26" stroke="#718096" stroke-opacity=".35" stroke-width="1"/><text x="349" y="578" text-anchor="middle" font-family="Arial,sans-serif" font-size="11" fill="#dbe4f0">W</text></g><g><rect x="372" y="454" width="36" height="34" rx="5" fill="url(#key)" stroke="#090f19" stroke-width="1.5"/><path d="M377 560h26" stroke="#718096" stroke-opacity=".35" stroke-width="1"/><text x="390" y="578" text-anchor="middle" font-family="Arial,sans-serif" font-size="11" fill="#dbe4f0">E</text></g><g><rect x="413" y="454" width="36" height="34" rx="5" fill="url(#key)" stroke="#090f19" stroke-width="1.5"/><path d="M418 560h26" stroke="#718096" stroke-opacity=".35" stroke-width="1"/><text x="431" y="578" text-anchor="middle" font-family="Arial,sans-serif" font-size="11" fill="#dbe4f0">R</text></g><g><rect x="454" y="454" width="36" height="34" rx="5" fill="url(#key)" stroke="#090f19" stroke-width="1.5"/><path d="M459 560h26" stroke="#718096" stroke-opacity=".35" stroke-width="1"/><text x="472" y="578" text-anchor="middle" font-family="Arial,sans-serif" font-size="11" fill="#dbe4f0">T</text></g><g><rect x="495" y="454" width="36" height="34" rx="5" fill="url(#key)" stroke="#090f19" stroke-width="1.5"/><path d="M500 560h26" stroke="#718096" stroke-opacity=".35" stroke-width="1"/><text x="513" y="578" text-anchor="middle" font-family="Arial,sans-serif" font-size="11" fill="#dbe4f0">Y</text></g><g><rect x="536" y="454" width="36" height="34" rx="5" fill="url(#key)" stroke="#090f19" stroke-width="1.5"/><path d="M541 560h26" stroke="#718096" stroke-opacity=".35" stroke-width="1"/><text x="554" y="578" text-anchor="middle" font-family="Arial,sans-serif" font-size="11" fill="#dbe4f0">U</text></g><g><rect x="577" y="454" width="36" height="34" rx="5" fill="url(#key)" stroke="#090f19" stroke-width="1.5"/><path d="M582 560h26" stroke="#718096" stroke-opacity=".35" stroke-width="1"/><text x="595" y="578" text-anchor="middle" font-family="Arial,sans-serif" font-size="11" fill="#dbe4f0">I</text></g><g><rect x="618" y="454" width="36" height="34" rx="5" fill="url(#key)" stroke="#090f19" stroke-width="1.5"/><path d="M623 560h26" stroke="#718096" stroke-opacity=".35" stroke-width="1"/><text x="636" y="578" text-anchor="middle" font-family="Arial,sans-serif" font-size="11" fill="#dbe4f0">O</text></g><g><rect x="659" y="454" width="36" height="34" rx="5" fill="url(#key)" stroke="#090f19" stroke-width="1.5"/><path d="M664 560h26" stroke="#718096" stroke-opacity=".35" stroke-width="1"/><text x="677" y="578" text-anchor="middle" font-family="Arial,sans-serif" font-size="11" fill="#dbe4f0">P</text></g><g><rect x="700" y="454" width="36" height="34" rx="5" fill="url(#key)" stroke="#090f19" stroke-width="1.5"/><path d="M705 560h26" stroke="#718096" stroke-opacity=".35" stroke-width="1"/><text x="718" y="578" text-anchor="middle" font-family="Arial,sans-serif" font-size="11" fill="#dbe4f0">[</text></g><g><rect x="741" y="454" width="36" height="34" rx="5" fill="url(#key)" stroke="#090f19" stroke-width="1.5"/><path d="M746 560h26" stroke="#718096" stroke-opacity=".35" stroke-width="1"/><text x="759" y="578" text-anchor="middle" font-family="Arial,sans-serif" font-size="11" fill="#dbe4f0">]</text></g><g><rect x="782" y="454" width="55" height="34" rx="5" fill="url(#key)" stroke="#090f19" stroke-width="1.5"/><path d="M787 560h45" stroke="#718096" stroke-opacity=".35" stroke-width="1"/><text x="809.5" y="578" text-anchor="middle" font-family="Arial,sans-serif" font-size="11" fill="#dbe4f0">\</text></g><g><rect x="230" y="496" width="65" height="34" rx="5" fill="url(#key)" stroke="#090f19" stroke-width="1.5"/><path d="M235 604h55" stroke="#718096" stroke-opacity=".35" stroke-width="1"/><text x="262.5" y="622" text-anchor="middle" font-family="Arial,sans-serif" font-size="11" fill="#dbe4f0">Caps</text></g><g><rect x="300" y="496" width="36" height="34" rx="5" fill="url(#key)" stroke="#090f19" stroke-width="1.5"/><path d="M305 604h26" stroke="#718096" stroke-opacity=".35" stroke-width="1"/><text x="318" y="622" text-anchor="middle" font-family="Arial,sans-serif" font-size="11" fill="#dbe4f0">A</text></g><g><rect x="341" y="496" width="36" height="34" rx="5" fill="url(#key)" stroke="#090f19" stroke-width="1.5"/><path d="M346 604h26" stroke="#718096" stroke-opacity=".35" stroke-width="1"/><text x="359" y="622" text-anchor="middle" font-family="Arial,sans-serif" font-size="11" fill="#dbe4f0">S</text></g><g><rect x="382" y="496" width="36" height="34" rx="5" fill="url(#key)" stroke="#090f19" stroke-width="1.5"/><path d="M387 604h26" stroke="#718096" stroke-opacity=".35" stroke-width="1"/><text x="400" y="622" text-anchor="middle" font-family="Arial,sans-serif" font-size="11" fill="#dbe4f0">D</text></g><g><rect x="423" y="496" width="36" height="34" rx="5" fill="url(#key)" stroke="#090f19" stroke-width="1.5"/><path d="M428 604h26" stroke="#718096" stroke-opacity=".35" stroke-width="1"/><text x="441" y="622" text-anchor="middle" font-family="Arial,sans-serif" font-size="11" fill="#dbe4f0">F</text></g><g><rect x="464" y="496" width="36" height="34" rx="5" fill="url(#key)" stroke="#090f19" stroke-width="1.5"/><path d="M469 604h26" stroke="#718096" stroke-opacity=".35" stroke-width="1"/><text x="482" y="622" text-anchor="middle" font-family="Arial,sans-serif" font-size="11" fill="#dbe4f0">G</text></g><g><rect x="505" y="496" width="36" height="34" rx="5" fill="url(#key)" stroke="#090f19" stroke-width="1.5"/><path d="M510 604h26" stroke="#718096" stroke-opacity=".35" stroke-width="1"/><text x="523" y="622" text-anchor="middle" font-family="Arial,sans-serif" font-size="11" fill="#dbe4f0">H</text></g><g><rect x="546" y="496" width="36" height="34" rx="5" fill="url(#key)" stroke="#090f19" stroke-width="1.5"/><path d="M551 604h26" stroke="#718096" stroke-opacity=".35" stroke-width="1"/><text x="564" y="622" text-anchor="middle" font-family="Arial,sans-serif" font-size="11" fill="#dbe4f0">J</text></g><g><rect x="587" y="496" width="36" height="34" rx="5" fill="url(#key)" stroke="#090f19" stroke-width="1.5"/><path d="M592 604h26" stroke="#718096" stroke-opacity=".35" stroke-width="1"/><text x="605" y="622" text-anchor="middle" font-family="Arial,sans-serif" font-size="11" fill="#dbe4f0">K</text></g><g><rect x="628" y="496" width="36" height="34" rx="5" fill="url(#key)" stroke="#090f19" stroke-width="1.5"/><path d="M633 604h26" stroke="#718096" stroke-opacity=".35" stroke-width="1"/><text x="646" y="622" text-anchor="middle" font-family="Arial,sans-serif" font-size="11" fill="#dbe4f0">L</text></g><g><rect x="669" y="496" width="36" height="34" rx="5" fill="url(#key)" stroke="#090f19" stroke-width="1.5"/><path d="M674 604h26" stroke="#718096" stroke-opacity=".35" stroke-width="1"/><text x="687" y="622" text-anchor="middle" font-family="Arial,sans-serif" font-size="11" fill="#dbe4f0">;</text></g><g><rect x="710" y="496" width="36" height="34" rx="5" fill="url(#key)" stroke="#090f19" stroke-width="1.5"/><path d="M715 604h26" stroke="#718096" stroke-opacity=".35" stroke-width="1"/><text x="728" y="622" text-anchor="middle" font-family="Arial,sans-serif" font-size="11" fill="#dbe4f0">'</text></g><g><rect x="751" y="496" width="65" height="34" rx="5" fill="url(#key)" stroke="#090f19" stroke-width="1.5"/><path d="M756 604h55" stroke="#718096" stroke-opacity=".35" stroke-width="1"/><text x="783.5" y="622" text-anchor="middle" font-family="Arial,sans-serif" font-size="11" fill="#dbe4f0">Enter</text></g><g><rect x="230" y="538" width="82" height="34" rx="5" fill="url(#key)" stroke="#090f19" stroke-width="1.5"/><path d="M235 648h72" stroke="#718096" stroke-opacity=".35" stroke-width="1"/><text x="271" y="666" text-anchor="middle" font-family="Arial,sans-serif" font-size="11" fill="#dbe4f0">Shift</text></g><g><rect x="317" y="538" width="36" height="34" rx="5" fill="url(#key)" stroke="#090f19" stroke-width="1.5"/><path d="M322 648h26" stroke="#718096" stroke-opacity=".35" stroke-width="1"/><text x="335" y="666" text-anchor="middle" font-family="Arial,sans-serif" font-size="11" fill="#dbe4f0">Z</text></g><g><rect x="358" y="538" width="36" height="34" rx="5" fill="url(#key)" stroke="#090f19" stroke-width="1.5"/><path d="M363 648h26" stroke="#718096" stroke-opacity=".35" stroke-width="1"/><text x="376" y="666" text-anchor="middle" font-family="Arial,sans-serif" font-size="11" fill="#dbe4f0">X</text></g><g><rect x="399" y="538" width="36" height="34" rx="5" fill="url(#key)" stroke="#090f19" stroke-width="1.5"/><path d="M404 648h26" stroke="#718096" stroke-opacity=".35" stroke-width="1"/><text x="417" y="666" text-anchor="middle" font-family="Arial,sans-serif" font-size="11" fill="#dbe4f0">C</text></g><g><rect x="440" y="538" width="36" height="34" rx="5" fill="url(#key)" stroke="#090f19" stroke-width="1.5"/><path d="M445 648h26" stroke="#718096" stroke-opacity=".35" stroke-width="1"/><text x="458" y="666" text-anchor="middle" font-family="Arial,sans-serif" font-size="11" fill="#dbe4f0">V</text></g><g><rect x="481" y="538" width="36" height="34" rx="5" fill="url(#key)" stroke="#090f19" stroke-width="1.5"/><path d="M486 648h26" stroke="#718096" stroke-opacity=".35" stroke-width="1"/><text x="499" y="666" text-anchor="middle" font-family="Arial,sans-serif" font-size="11" fill="#dbe4f0">B</text></g><g><rect x="522" y="538" width="36" height="34" rx="5" fill="url(#key)" stroke="#090f19" stroke-width="1.5"/><path d="M527 648h26" stroke="#718096" stroke-opacity=".35" stroke-width="1"/><text x="540" y="666" text-anchor="middle" font-family="Arial,sans-serif" font-size="11" fill="#dbe4f0">N</text></g><g><rect x="563" y="538" width="36" height="34" rx="5" fill="url(#key)" stroke="#090f19" stroke-width="1.5"/><path d="M568 648h26" stroke="#718096" stroke-opacity=".35" stroke-width="1"/><text x="581" y="666" text-anchor="middle" font-family="Arial,sans-serif" font-size="11" fill="#dbe4f0">M</text></g><g><rect x="604" y="538" width="36" height="34" rx="5" fill="url(#key)" stroke="#090f19" stroke-width="1.5"/><path d="M609 648h26" stroke="#718096" stroke-opacity=".35" stroke-width="1"/><text x="622" y="666" text-anchor="middle" font-family="Arial,sans-serif" font-size="11" fill="#dbe4f0">,</text></g><g><rect x="645" y="538" width="36" height="34" rx="5" fill="url(#key)" stroke="#090f19" stroke-width="1.5"/><path d="M650 648h26" stroke="#718096" stroke-opacity=".35" stroke-width="1"/><text x="663" y="666" text-anchor="middle" font-family="Arial,sans-serif" font-size="11" fill="#dbe4f0">.</text></g><g><rect x="686" y="538" width="36" height="34" rx="5" fill="url(#key)" stroke="#090f19" stroke-width="1.5"/><path d="M691 648h26" stroke="#718096" stroke-opacity=".35" stroke-width="1"/><text x="704" y="666" text-anchor="middle" font-family="Arial,sans-serif" font-size="11" fill="#dbe4f0">/</text></g><g><rect x="727" y="538" width="82" height="34" rx="5" fill="url(#key)" stroke="#090f19" stroke-width="1.5"/><path d="M732 648h72" stroke="#718096" stroke-opacity=".35" stroke-width="1"/><text x="768" y="666" text-anchor="middle" font-family="Arial,sans-serif" font-size="11" fill="#dbe4f0">Shift</text></g><g><rect x="230" y="580" width="50" height="34" rx="5" fill="url(#key)" stroke="#090f19" stroke-width="1.5"/><path d="M235 692h40" stroke="#718096" stroke-opacity=".35" stroke-width="1"/><text x="255" y="710" text-anchor="middle" font-family="Arial,sans-serif" font-size="11" fill="#dbe4f0">Ctrl</text></g><g><rect x="285" y="580" width="42" height="34" rx="5" fill="url(#key)" stroke="#090f19" stroke-width="1.5"/><path d="M290 692h32" stroke="#718096" stroke-opacity=".35" stroke-width="1"/><text x="306" y="710" text-anchor="middle" font-family="Arial,sans-serif" font-size="11" fill="#dbe4f0">Fn</text></g><g><rect x="332" y="580" width="42" height="34" rx="5" fill="url(#key)" stroke="#090f19" stroke-width="1.5"/><path d="M337 692h32" stroke="#718096" stroke-opacity=".35" stroke-width="1"/><text x="353" y="710" text-anchor="middle" font-family="Arial,sans-serif" font-size="11" fill="#dbe4f0">Win</text></g><g><rect x="379" y="580" width="48" height="34" rx="5" fill="url(#key)" stroke="#090f19" stroke-width="1.5"/><path d="M384 692h38" stroke="#718096" stroke-opacity=".35" stroke-width="1"/><text x="403" y="710" text-anchor="middle" font-family="Arial,sans-serif" font-size="11" fill="#dbe4f0">Alt</text></g><g><rect x="432" y="580" width="210" height="34" rx="5" fill="url(#key)" stroke="#090f19" stroke-width="1.5"/><path d="M437 692h200" stroke="#718096" stroke-opacity=".35" stroke-width="1"/><text x="537" y="710" text-anchor="middle" font-family="Arial,sans-serif" font-size="11" fill="#dbe4f0">Space</text></g><g><rect x="647" y="580" width="48" height="34" rx="5" fill="url(#key)" stroke="#090f19" stroke-width="1.5"/><path d="M652 692h38" stroke="#718096" stroke-opacity=".35" stroke-width="1"/><text x="671" y="710" text-anchor="middle" font-family="Arial,sans-serif" font-size="11" fill="#dbe4f0">Alt</text></g><g><rect x="700" y="580" width="42" height="34" rx="5" fill="url(#key)" stroke="#090f19" stroke-width="1.5"/><path d="M705 692h32" stroke="#718096" stroke-opacity=".35" stroke-width="1"/><text x="721" y="710" text-anchor="middle" font-family="Arial,sans-serif" font-size="11" fill="#dbe4f0">Menu</text></g><g><rect x="747" y="580" width="50" height="34" rx="5" fill="url(#key)" stroke="#090f19" stroke-width="1.5"/><path d="M752 692h40" stroke="#718096" stroke-opacity=".35" stroke-width="1"/><text x="772" y="710" text-anchor="middle" font-family="Arial,sans-serif" font-size="11" fill="#dbe4f0">Ctrl</text></g>
</g>
</svg>